<svg xmlns="http://www.w3.org/2000/svg" viewBox="0 0 23.999 24">
  <defs>
    <style>
      .cls-1 {
        fill: #f44336;
      }

      .cls-2 {
        fill: #fafafa;
      }
    </style>
  </defs>
  <g id="discount" transform="translate(-0.01 0)">
    <path id="Path_876" data-name="Path 876" class="cls-1" d="M22.907,12,23.96,9.254a.751.751,0,0,0-.228-.852L21.449,6.551l-.462-2.905a.75.75,0,0,0-.624-.622l-2.905-.462L15.608.277a.751.751,0,0,0-.85-.228L12.01,1.1,9.264.051a.748.748,0,0,0-.85.228L6.562,2.563l-2.905.462a.751.751,0,0,0-.622.622L2.573,6.553.288,8.4a.75.75,0,0,0-.228.85L1.113,12,.06,14.747a.748.748,0,0,0,.228.85l2.284,1.849.462,2.905a.75.75,0,0,0,.622.624l2.905.462,1.851,2.283a.746.746,0,0,0,.852.228L12.01,22.9l2.746,1.053a.751.751,0,0,0,.852-.229l1.849-2.283,2.905-.462a.751.751,0,0,0,.624-.624l.462-2.905L23.732,15.6a.749.749,0,0,0,.228-.85Z" transform="translate(0 0)"/>
    <g id="Group_603" data-name="Group 603" transform="translate(7.51 6)">
      <path id="Path_877" data-name="Path 877" class="cls-2" d="M162.272,132.535a2.25,2.25,0,1,1,2.25-2.25A2.253,2.253,0,0,1,162.272,132.535Zm0-3a.75.75,0,1,0,.75.75A.75.75,0,0,0,162.272,129.535Z" transform="translate(-160.022 -128.034)"/>
      <path id="Path_878" data-name="Path 878" class="cls-2" d="M258.272,292.535a2.25,2.25,0,1,1,2.25-2.25A2.253,2.253,0,0,1,258.272,292.535Zm0-3a.75.75,0,1,0,.75.75A.752.752,0,0,0,258.272,289.535Z" transform="translate(-251.522 -280.535)"/>
      <path id="Path_879" data-name="Path 879" class="cls-2" d="M160.786,140.017a.75.75,0,0,1-.609-1.186l7.5-10.5a.75.75,0,0,1,1.221.871l-7.5,10.5A.753.753,0,0,1,160.786,140.017Z" transform="translate(-160.036 -128.017)"/>
    </g>
  </g>
</svg>
